<svg width="22" height="28" viewBox="0 0 22 28" fill="none" xmlns="http://www.w3.org/2000/svg">
<path fill-rule="evenodd" clip-rule="evenodd" d="M17.969 13.9999L21.5631 20.7501H14.3752L10.7816 27.5L7.18771 20.7501H3.59385H0L1.79692 17.375L4.81544 11.7057L5.10896 11.1543L5.13667 11.102L7.18771 7.24994L8.77709 4.26486L10.7816 0.5L14.3752 7.24994L17.969 13.9999ZM8.65837 13.9999L10.7815 10.0122L12.9045 13.9999L10.7815 17.9878L8.65837 13.9999Z" fill="#E72F3C"/>
<path d="M10.7814 17.9879L12.9045 14H8.6582L10.7814 17.9879Z" fill="#C61A27"/>
<path d="M3.59385 14L0 20.7502H7.18771L3.59385 14Z" fill="#C61A27"/>
<path d="M10.7813 27.4999L14.3752 20.75H7.1875L10.7813 27.4999Z" fill="#C61A27"/>
<path d="M17.9686 14L14.375 20.7502H21.5625L17.9686 14Z" fill="#C61A27"/>
</svg>
